<svg fill="none" height="48" viewBox="0 0 48 48" width="48" xmlns="http://www.w3.org/2000/svg"><path d="m5.25.375c-.6375 0-1.125.4875-1.125 1.125v45c0 .6375.4875 1.125 1.125 1.125s1.125-.4875 1.125-1.125v-9h11.625c.6375 0 1.125-.4875 1.125-1.125s-.4875-1.125-1.125-1.125h-11.625v-32.625h35.25v17.625c0 .6375.4875 1.125 1.125 1.125s1.125-.4875 1.125-1.125v-18.75c0-.6375-.4875-1.125-1.125-1.125zm5.625 5.625c-.6375 0-1.125.4875-1.125 1.125s.4875 1.125 1.125 1.125h11.2126c.5625 0 1.0499.37515 1.1624.90015.15.7125-.4126 1.34985-1.0876 1.34985h-11.2874c-.6375 0-1.125.4875-1.125 1.125v19.125c0 .6375.4875 1.125 1.125 1.125h10.1624c1.5-6.45 7.3126-11.25 14.2126-11.25 1.0125 0 2.025.1128 3 .3003v-13.8003c0-.6375-.4875-1.125-1.125-1.125zm16.875 2.25h1.875c.6375 0 1.125.4875 1.125 1.125s-.4875 1.125-1.125 1.125h-1.875c-.6375 0-1.125-.4875-1.125-1.125s.4875-1.125 1.125-1.125zm7.5 14.625c-6.825 0-12.375 5.55-12.375 12.375s5.55 12.375 12.375 12.375 12.375-5.55 12.375-12.375-5.55-12.375-12.375-12.375zm5.6763 7.8376c.2859 0 .5672.1127.7734.3377.45.45.45 1.1622 0 1.5747l-6.4123 6.4124c-.225.225-.4874.3376-.7874.3376s-.5999-.1126-.7874-.3376l-3.1875-3.1875c-.45-.45-.45-1.1621 0-1.6121s1.1623-.45 1.5748 0l2.3627 2.3994 5.6624-5.5869c.225-.225.5153-.3377.8013-.3377zm-31.1763 10.1624c-.6375 0-1.125.4875-1.125 1.125s.4875 1.125 1.125 1.125h9c.6375 0 1.125-.4875 1.125-1.125s-.4875-1.125-1.125-1.125z" fill="#084b6d"/></svg>