<svg fill="none" height="48" viewBox="0 0 48 48" width="48" xmlns="http://www.w3.org/2000/svg"><path d="m5.25 7.875c-2.7 0-4.875 2.175-4.875 4.875v23.1372c0 2.325 1.91279 4.2378 4.23779 4.2378h38.13721c2.7 0 4.875-2.175 4.875-4.875v-23.1372c0-2.32501-1.9128-4.2378-4.2378-4.2378zm0 2.25h38.1372c1.0875 0 1.9878.9003 1.9878 1.9878v23.1372c0 1.4625-1.1625 2.625-2.625 2.625h-38.13721c-1.0875 0-1.98779-.9003-1.98779-1.9878v-23.1372c0-1.4625 1.1625-2.625 2.625-2.625zm26.1196 2.6272c-.1426.005-.2868.0164-.4321.0352-2.025.2625-3.6751 1.9125-3.9001 3.9375-.3 2.7375 1.8001 5.0251 4.4626 5.0251.9375 0 1.7997-.2999 2.5122-.7874.4125-.2625.9-.2625 1.3125 0 .7125.4875 1.5754.7874 2.5129.7874 2.6625 0 4.7627-2.2876 4.4627-5.0251-.1875-2.025-1.8003-3.675-3.8628-3.9375-1.1625-.15-2.2503.15-3.1128.75-.375.2625-.8994.2625-1.2744 0-.7547-.525-1.6819-.8201-2.6807-.7852zm-23.75681 17.9978c-.6375 0-1.125.4875-1.125 1.125s.4875 1.125 1.125 1.125h15.75001c.6375 0 1.125-.4875 1.125-1.125s-.4875-1.125-1.125-1.125zm23.25001 0c-.6375 0-1.125.4875-1.125 1.125s.4875 1.125 1.125 1.125h3.75c.6375 0 1.125-.4875 1.125-1.125s-.4875-1.125-1.125-1.125z" fill="#084b6d"/></svg>