<svg fill="none" height="48" viewBox="0 0 48 48" width="48" xmlns="http://www.w3.org/2000/svg"><path d="m5.21565 11.8857c-.05017-.0033-.10151-.0032-.15308.0015l-3.59985.1128c-.637501.0375-1.125147.5249-1.087647 1.1624s.562353 1.1251 1.162357 1.0876l2.92529-.1128 8.84988 15.3377c.225.375.5998.5625.9748.5625.1875 0 .375-.0377.5625-.1502.525-.3.7124-1.0123.4124-1.5373l-.375-.6373 6.1875-3.5251 1.3125 2.25c.225.375.6006.5625.9756.5625.1875 0 .375-.0376.5625-.1501.525-.3.7123-1.0124.4123-1.5374l-1.3125-2.25 6.1502-3.5251 8.25 14.25-12.0381 6.9375c-.45.2625-.6744.7876-.5244 1.2751s.5619.8247 1.0869.8247h2.0251c-1.0125 1.5375-2.7373 2.5877-4.7248 2.5877h-.0374c-.6 0-1.125.4875-1.125 1.125s.4875 1.125 1.125 1.125h.0374c3.2625 0 6.0751-1.9877 7.2751-4.8377h2.9246c.1875 0 .375-.0369.5625-.1494l13.0129-7.5c.45-.2625.6752-.7877.5252-1.2752-.0375-.075-.0753-.1879-.1128-.2629l-9.375-16.2371c-.1875-.3375-.5624-.5625-.9749-.5625l-7.4626.0374h-.0374c-.1875 0-.375.0376-.5625.1501l-15.2629 8.7371-7.68752-13.3125c-.19687-.3281-.50793-.5409-.85913-.564zm7.49925 0c-.0502-.0033-.1008-.0032-.1523.0015l-2.84988.1128c-.6375.0375-1.08765.5624-1.08765 1.1624.0375.6375.56236 1.0876 1.16236 1.0876l2.17527-.1128 3.9749 6.8628c.225.375.5998.5625.9748.5625.1875 0 .375-.0376.5625-.1501.525-.3.7124-1.0124.4124-1.5374l-4.3125-7.4253c-.1969-.3281-.5087-.5409-.8599-.564zm23.7349 7.1646 8.0625 13.9871h-4.9124l-8.0625-13.9124zm-20.6997 12.8247c-4.3125 0-7.83753 3.4876-7.87503 7.8376s3.48763 7.8749 7.83763 7.9124h.0374c4.3125 0 7.8375-3.4876 7.875-7.8376s-3.4877-7.8749-7.8377-7.9124zm0 2.25h.0373c3.1125 0 5.6252 2.5499 5.5877 5.6624 0 3.075-2.55 5.5876-5.625 5.5876h-.0374c-3.075 0-5.5876-2.5499-5.5876-5.6624 0-3.075 2.55-5.5876 5.625-5.5876z" fill="#084b6d"/></svg>