<svg fill="none" height="48" viewBox="0 0 48 48" width="48" xmlns="http://www.w3.org/2000/svg"><path d="m11.9999 7.875c-.3 0-.5999.11265-.7874.33765l-7.49999 7.49995c-.225.1875-.33765.4874-.33765.7874v15c0 .6375.4875 1.125 1.125 1.125s1.125-.4875 1.125-1.125v-13.875h36.75004v13.875c0 .6375.4875 1.125 1.125 1.125s1.125-.4875 1.125-1.125v-15c0-.3-.1127-.5999-.3377-.7874l-7.5-7.49995c-.1875-.225-.4873-.33765-.7873-.33765zm.4497 2.25h10.4253v5.25h-15.67533zm12.6753 0h10.4253l5.25 5.25h-15.6753zm16.1638 26.7568c-.5184.0118-.9907.3935-1.0891.9185-.1125.6.3001 1.2.9001 1.3125l2.5877.4871c-12.6375 8.1375-29.3249 7.6125-41.47489-1.5-.4875-.375-1.20044-.2627-1.575441.2248-.375.4875-.261914 1.2004.225586 1.5754 6.824995 5.1375 14.999545 7.6875 23.174545 7.6875 7.275 0 14.5505-2.0252 20.888-6.1127l-.4878 2.5129c-.1125.6.3001 1.2.9001 1.3125.075 0 .1499.0373.2249.0373.525 0 1.0126-.3751 1.0876-.9001l.9749-5.2126c.0375-.3 0-.5998-.1875-.8248-.15-.2625-.4127-.4127-.7127-.4877l-5.2126-1.0123c-.075-.014-.1494-.0199-.2234-.0183z" fill="#084b6d"/></svg>