<svg fill="none" height="35" viewBox="0 0 114 35" width="114" xmlns="http://www.w3.org/2000/svg"><g fill="#fff"><path d="m23.184 2.23197c-.1008-.168-.2688-.2688-.4368-.2688-.1008 0-.2016.0336-.2688.1008l-.2016.168c-.2016.168-.4032.168-.6384.168h-17.16963c-.2688 0-.4704 0-.672-.168l-.168-.168c-.1008-.0672-.2016-.1008-.3024-.1008-.168 0-.3024.1008-.4032.2688l-2.688001 4.9056c-.0672.1344-.0672.2016-.0672.3024 0 .168.0672.3024.2688.4368l1.411201.7392c.1008.0672.2016.1008.2688.1008.168 0 .3024-.1008.4368-.3024l.1008-.168c1.2768-2.184 3.2928-3.0912 6.0144-3.0912h1.64643v17.23683c0 1.7808-.57123 3.1248-2.25123 3.192h-.2016c-.336 0-.504.2016-.504.504v1.008c0 .336.168.504.504.504h10.31523c.336 0 .504-.168.504-.504v-1.008c0-.3024-.168-.504-.504-.504h-.2352c-1.7136-.0672-2.2512-1.4112-2.2512-3.192v-17.23683h1.7136c2.7216 0 4.7712.9072 6.048 3.0912l.1008.168c.1008.2016.2352.3024.4032.3024.1008 0 .2016-.0336.3024-.1008l1.4112-.7392c.168-.1344.2688-.2688.2688-.4368 0-.0672-.0336-.168-.1008-.3024z"/><path d="m27.4501 11.136c-3.1584 1.4112-5.0064 4.5696-5.0064 7.896 0 1.2096.2352 2.4864.7728 3.6624 1.4784 3.3264 4.704 5.3424 8.0304 5.3424 1.1424 0 2.3184-.2352 3.3936-.7392 3.192-1.4112 5.04-4.5696 5.04-7.896 0-1.2432-.2352-2.4864-.7728-3.696-1.4784-3.3264-4.704-5.3088-8.064-5.3088-1.1424 0-2.2848.2352-3.3936.7392zm1.008 2.2512c.4704-.2016.9072-.3024 1.344-.3024 2.0832 0 3.864 2.1168 4.9392 4.5024.5712 1.2768.9408 2.6544.9408 3.8976 0 1.5792-.5712 2.8896-2.0496 3.5616-.4368.2016-.9072.2688-1.344.2688-2.0496 0-3.864-2.0832-4.9056-4.4688-.5712-1.2768-.9408-2.6544-.9408-3.9312 0-1.5456.5712-2.8896 2.016-3.528z"/><path d="m51.1972 10.8c-.336 0-.504.168-.504.504v1.008c0 .336.168.504.504.504h.5712c.5712 0 .7728.2688.7728.7056 0 .5712-.3696 1.4448-.8064 2.3856l-2.4528 5.0064-2.2512-4.9392c-.4032-.8736-.7392-1.68-.7392-2.2848 0-.5376.2688-.8736 1.0752-.8736h.0672c.3024 0 .4704-.168.4704-.504v-1.008c0-.336-.168-.504-.4704-.504h-7.7616c-.336 0-.504.168-.504.504v1.008c0 .336.168.504.504.504h.0672c.84 0 1.1424.4704 1.9488 2.1168l4.9392 10.248-3.7632 8.0304c-.1344.3024-.0672.5376.2352.672l1.7136.8736c.3024.1344.5376.0336.672-.2352l9.744-19.5888c.7728-1.68 1.2432-2.1168 1.9824-2.1168h.4704c.336 0 .504-.168.504-.504v-1.008c0-.336-.168-.504-.504-.504z"/><path d="m59.5757 20.376c0 5.544 3.6288 7.6272 8.0976 7.6272 5.4432 0 8.8032-3.5952 8.8032-8.7696 0-6.4848-4.536-8.8704-8.1312-8.8704-1.9152 0-3.4944.7728-4.0656 1.6464v-11.22243c0-.0336 0-.067199-.0336-.067199h-.1008c-.0336.033599-.1008.067199-.1344.100798-.9072.638401-2.7888 1.915201-6.3168 3.091201-.3024.1344-.4704.168-.4704.4704v1.1424c-.0336.2016.0336.3696.3696.4032 1.848.2016 1.9824 2.0832 1.9824 3.864zm4.704-6.1824c.8064-.5712 1.68-.84 2.5536-.84 3.4272 0 5.3088 2.688 5.3088 6.9888 0 2.7552-.8736 5.5104-4.1328 5.5104-1.9152 0-3.7296-1.4448-3.7296-4.7712z"/><path d="m82.5371 11.136c-3.1584 1.4112-5.0064 4.5696-5.0064 7.896 0 1.2096.2352 2.4864.7728 3.6624 1.4784 3.3264 4.704 5.3424 8.0304 5.3424 1.1424 0 2.3184-.2352 3.3936-.7392 3.192-1.4112 5.04-4.5696 5.04-7.896 0-1.2432-.2352-2.4864-.7728-3.696-1.4784-3.3264-4.704-5.3088-8.064-5.3088-1.1424 0-2.2848.2352-3.3936.7392zm1.008 2.2512c.4704-.2016.9072-.3024 1.344-.3024 2.0832 0 3.864 2.1168 4.9392 4.5024.5712 1.2768.9408 2.6544.9408 3.8976 0 1.5792-.5712 2.8896-2.0496 3.5616-.4368.2016-.9072.2688-1.344.2688-2.0496 0-3.864-2.0832-4.9056-4.4688-.5712-1.2768-.9408-2.6544-.9408-3.9312 0-1.5456.5712-2.8896 2.016-3.528z"/><path d="m113.178 25.6176c-.84 0-1.78-.7056-2.956-2.1168l-3.932-4.8048 2.957-3.7632c1.143-1.4784 1.613-2.1168 2.991-2.1168h.47c.336 0 .504-.168.504-.504v-1.008c0-.336-.168-.504-.504-.504h-6.182c-.303 0-.504.168-.504.504v1.008c0 .336.201.504.504.504h.336c.571 0 .806.1344.806.4032 0 .3696-.37.9072-.974 1.7136l-1.714 2.184-2.251-2.7216c-.37-.4704-.571-.84-.571-1.0752 0-.3696.403-.504 1.209-.504h.067c.336 0 .504-.168.504-.504v-1.008c0-.336-.168-.504-.504-.504h-8.4332c-.3024 0-.504.168-.504.504v1.008c0 .336.2016.504.504.504h.1008c.84 0 1.7808.7056 2.9568 2.1168l3.2256 3.9312-3.6288 4.6368c-1.1424 1.4784-1.5792 2.1168-2.9568 2.1168h-.4032v.0336c-.168.0672-.2352.2352-.2352.4704v1.008c0 .2352.0672.3696.2352.4368v.0336h6.4178c.336 0 .504-.168.504-.4704v-1.008c0-.336-.168-.504-.504-.504h-.672c-.5714 0-.8066-.1344-.8066-.4368 0-.336.3696-.9072 1.0076-1.68l2.352-3.0576 2.89 3.4944c.336.4032.47.7056.47.9408 0 .6048-.772.7392-1.209.7392h-.067c-.336 0-.504.168-.504.504v1.008c0 .3024.168.4704.504.4704h8.601c.303 0 .504-.168.504-.4704v-1.008c0-.336-.201-.504-.504-.504z"/></g></svg>