<svg fill="none" height="30" viewBox="0 0 95 30" width="95" xmlns="http://www.w3.org/2000/svg"><g fill="#084b6d"><path d="m19.3206 1.85997c-.084-.14-.224-.22399-.364-.22399-.084 0-.168.028-.224.08399l-.168.14c-.168.14-.336.14-.532.14h-14.30797c-.224 0-.392 0-.56-.14l-.14-.14c-.084-.05599-.168-.08399-.252-.08399-.14 0-.252.08399-.336.22399l-2.240005 4.08801c-.056.112-.056.16799-.056.252 0 .13999.056.25199.224.364l1.176005.616c.084.056.168.084.224.084.14 0 .252-.084.364-.25201l.084-.14c1.064-1.81999 2.74399-2.576 5.012-2.576h1.372v14.36403c0 1.484-.476 2.604-1.876 2.66h-.168c-.28001 0-.42.168-.42.42v.84c0 .28.13999.42.42.42h8.59597c.28 0 .42-.14.42-.42v-.84c0-.252-.14-.42-.42-.42h-.196c-1.428-.056-1.876-1.176-1.876-2.66v-14.36403h1.428c2.268 0 3.976.75601 5.04 2.576l.084.14c.084.16801.196.25201.336.25201.084 0 .168-.028.252-.084l1.176-.616c.14-.11201.224-.22401.224-.364 0-.05601-.028-.14-.084-.252z"/><path d="m22.8757 9.27998c-2.632 1.17602-4.1719 3.80802-4.1719 6.58002 0 1.008.1959 2.072.6439 3.052 1.2321 2.772 3.92 4.452 6.6921 4.452.952 0 1.932-.196 2.828-.616 2.66-1.176 4.2-3.808 4.2-6.58 0-1.036-.1961-2.072-.644-3.08-1.232-2.772-3.92-4.42403-6.72-4.42403-.952 0-1.9041.19601-2.8281.61601zm.84 1.87602c.392-.168.7561-.252 1.1201-.252 1.736 0 3.2199 1.764 4.1159 3.752.476 1.064.7841 2.212.7841 3.248 0 1.316-.476 2.408-1.708 2.968-.3641.168-.756.224-1.12.224-1.708 0-3.2201-1.736-4.0881-3.724-.4759-1.064-.784-2.212-.784-3.276 0-1.288.476-2.408 1.68-2.94z"/><path d="m42.665 8.99998c-.28 0-.42.13999-.42.42v.84002c0 .28.14.42.42.42h.476c.476 0 .644.224.644.588 0 .476-.308 1.204-.672 1.988l-2.044 4.172-1.876-4.116c-.336-.728-.616-1.4-.616-1.904 0-.448.224-.728.896-.728h.056c.252 0 .392-.14.392-.42v-.84002c0-.28001-.14-.42-.392-.42h-6.468c-.28 0-.42.13999-.42.42v.84002c0 .28.14.42.42.42h.056c.7 0 .952.392 1.624 1.764l4.116 8.54-3.136 6.692c-.112.252-.056.448.196.56l1.428.728c.252.112.448.028.56-.196l8.12-16.324c.644-1.4 1.036-1.764 1.652-1.764h.392c.28 0 .42-.14.42-.42v-.84002c0-.28001-.14-.42-.42-.42z"/><path d="m49.647 16.98c0 4.62 3.024 6.356 6.748 6.356 4.536 0 7.336-2.996 7.336-7.308 0-5.404-3.78-7.39202-6.776-7.39202-1.596 0-2.912.644-3.388 1.37202v-9.352025c0-.028 0-.055999-.028-.055999h-.084c-.028.027999-.084.055999-.112.083999-.756.531995-2.324 1.596005-5.264 2.575995-.252.112-.392.14-.392.392v.95201c-.028.168.028.30799.308.33599 1.54.168 1.652 1.73601 1.652 3.22001zm3.92-5.152c.672-.476 1.4-.7 2.128-.7 2.856 0 4.424 2.24 4.424 5.824 0 2.296-.728 4.592-3.444 4.592-1.596 0-3.108-1.204-3.108-3.976z"/><path d="m68.7815 9.27998c-2.632 1.17602-4.172 3.80802-4.172 6.58002 0 1.008.196 2.072.644 3.052 1.232 2.772 3.92 4.452 6.692 4.452.952 0 1.932-.196 2.828-.616 2.66-1.176 4.2-3.808 4.2-6.58 0-1.036-.196-2.072-.644-3.08-1.232-2.772-3.92-4.42403-6.72-4.42403-.952 0-1.904.19601-2.828.61601zm.84 1.87602c.392-.168.756-.252 1.12-.252 1.736 0 3.22 1.764 4.116 3.752.476 1.064.784 2.212.784 3.248 0 1.316-.476 2.408-1.708 2.968-.364.168-.756.224-1.12.224-1.708 0-3.22-1.736-4.088-3.724-.476-1.064-.784-2.212-.784-3.276 0-1.288.476-2.408 1.68-2.94z"/><path d="m94.316 21.348c-.7 0-1.484-.588-2.464-1.764l-3.276-4.004 2.464-3.136c.952-1.232 1.344-1.764 2.492-1.764h.392c.28 0 .42-.14.42-.42v-.84002c0-.28001-.14-.42-.42-.42h-5.152c-.252 0-.42.13999-.42.42v.84002c0 .28.168.42.42.42h.28c.476 0 .672.112.672.336 0 .308-.308.756-.812 1.428l-1.428 1.82-1.876-2.268c-.308-.392-.476-.7-.476-.896 0-.308.336-.42 1.008-.42h.056c.28 0 .42-.14.42-.42v-.84002c0-.28001-.14-.42-.42-.42h-7.028c-.252 0-.42.13999-.42.42v.84002c0 .28.168.42.42.42h.084c.7 0 1.484.588 2.464 1.764l2.688 3.276-3.024 3.864c-.952 1.232-1.316 1.764-2.464 1.764h-.336v.028c-.14.056-.196.196-.196.392v.84c0 .196.056.308.196.364v.028h5.348c.28 0 .42-.14.42-.392v-.84c0-.28-.14-.42-.42-.42h-.56c-.476 0-.672-.112-.672-.364 0-.28.308-.756.84-1.4l1.96-2.548 2.408 2.912c.28.336.392.588.392.784 0 .504-.644.616-1.008.616h-.056c-.28 0-.42.14-.42.42v.84c0 .252.14.392.42.392h7.168c.252 0 .42-.14.42-.392v-.84c0-.28-.168-.42-.42-.42z"/></g></svg>