<svg fill="none" preserveAspectRatio="none" viewBox="0 0 100 100" xmlns="http://www.w3.org/2000/svg"><g clip-rule="evenodd" fill="#fff" fill-rule="evenodd"><path d="m50 0h-50v100h.14901c.31083 0 .617382-3.6224.89533-10.5798 2.11521-52.9468 3.43376-79.4202 3.95566-79.4202s1.84045 26.4734 3.95566 79.4202c.27795 6.9574.5845 10.5798.89533 10.5798h.29801c.3108 0 .6174-3.6224.8953-10.5798 2.1152-52.9468 3.4338-79.4202 3.9557-79.4202s1.8405 26.4734 3.9557 79.4202c.2779 6.9574.5845 10.5798.8953 10.5798h.298c.3108 0 .6174-3.6224.8953-10.5798 2.1152-52.9468 3.4338-79.4202 3.9557-79.4202s1.8405 26.4734 3.9557 79.4202c.2779 6.9574.5845 10.5798.8953 10.5798h.298c.3108 0 .6174-3.6224.8953-10.5798 2.1152-52.9468 3.4338-79.4202 3.9557-79.4202s1.8405 26.4734 3.9557 79.4202c.2779 6.9574.5845 10.5798.8953 10.5798h.298c.3108 0 .6174-3.6224.8953-10.5798 2.1152-52.9468 3.4338-79.4202 3.9557-79.4202s1.8405 26.4734 3.9557 79.4202c.2779 6.9574.5845 10.5798.8953 10.5798h.149z"/><path d="m100 0h-50v100h.149c.3108 0 .6174-3.6224.8953-10.5798 2.1152-52.9468 3.4338-79.4202 3.9557-79.4202s1.8405 26.4734 3.9557 79.4202c.2779 6.9574.5845 10.5798.8953 10.5798h.298c.3108 0 .6174-3.6224.8953-10.5798 2.1152-52.9468 3.4338-79.4202 3.9557-79.4202s1.8405 26.4734 3.9557 79.4202c.2779 6.9574.5845 10.5798.8953 10.5798h.298c.3108 0 .6174-3.6224.8953-10.5798 2.1152-52.9468 3.4338-79.4202 3.9557-79.4202s1.8405 26.4734 3.9557 79.4202c.2779 6.9574.5845 10.5798.8953 10.5798h.298c.3108 0 .6174-3.6224.8953-10.5798 2.1153-52.9468 3.4338-79.4202 3.9557-79.4202s1.8405 26.4734 3.9557 79.4202c.2779 6.9574.5845 10.5798.8953 10.5798h.298c.3108 0 .6174-3.6224.8953-10.5798 2.1153-52.9468 3.4338-79.4202 3.9557-79.4202s1.8405 26.4734 3.9557 79.4202c.2779 6.9574.5845 10.5798.8953 10.5798h.149z"/></g></svg>